<svg xmlns="http://www.w3.org/2000/svg" xmlns:xlink="http://www.w3.org/1999/xlink" width="321" zoomAndPan="magnify" viewBox="0 0 240.75 141.750002" height="189" preserveAspectRatio="xMidYMid meet" version="1.0"><defs><clipPath id="a9a2489c44"><path d="M 58.980469 0.140625 L 181.761719 0.140625 L 181.761719 141.367188 L 58.980469 141.367188 Z M 58.980469 0.140625 " clip-rule="nonzero"/></clipPath><clipPath id="e1b126919d"><path d="M 108 44 L 181.761719 44 L 181.761719 131 L 108 131 Z M 108 44 " clip-rule="nonzero"/></clipPath></defs><g clip-path="url(#a9a2489c44)"><path fill="#00ae37" d="M 152.710938 7.167969 C 140.757812 7.167969 129.316406 4.675781 120.371094 0.144531 C 111.429688 4.675781 99.984375 7.167969 88.03125 7.167969 C 77.5 7.167969 67.359375 5.234375 58.980469 1.671875 L 58.980469 60.292969 C 58.980469 98.445312 86.472656 134.691406 120.371094 141.367188 C 154.269531 134.691406 181.761719 98.445312 181.761719 60.292969 L 181.761719 1.671875 C 173.382812 5.234375 163.242188 7.167969 152.710938 7.167969 " fill-opacity="1" fill-rule="nonzero"/></g><path fill="#ffffff" d="M 108.320312 94.230469 L 82.746094 68.667969 L 90.410156 61.003906 L 108.320312 78.910156 L 150.332031 36.914062 L 157.996094 44.574219 L 108.320312 94.230469 " fill-opacity="1" fill-rule="nonzero"/><g clip-path="url(#e1b126919d)"><path fill="#008e28" d="M 144.910156 130.808594 C 164.632812 117.261719 178.957031 93.472656 181.394531 67.964844 L 157.996094 44.574219 L 108.320312 94.230469 L 144.910156 130.808594 " fill-opacity="1" fill-rule="nonzero"/></g></svg>