<svg xmlns="http://www.w3.org/2000/svg" xmlns:xlink="http://www.w3.org/1999/xlink" width="321" zoomAndPan="magnify" viewBox="0 0 240.75 141.750002" height="189" preserveAspectRatio="xMidYMid meet" version="1.0"><defs><clipPath id="5cc7d55371"><path d="M 71 87 L 121 87 L 121 141.285156 L 71 141.285156 Z M 71 87 " clip-rule="nonzero"/></clipPath><clipPath id="0e3d9989b0"><path d="M 65.554688 0.625 L 174.851562 0.625 L 174.851562 110.265625 L 65.554688 110.265625 Z M 65.554688 0.625 " clip-rule="nonzero"/></clipPath></defs><g clip-path="url(#5cc7d55371)"><path fill="#2e9129" d="M 120.828125 102.910156 L 101.433594 141.191406 L 91.890625 122.457031 L 71.15625 125.8125 L 90.550781 87.53125 L 120.828125 102.910156 " fill-opacity="1" fill-rule="nonzero"/></g><path fill="#2e9129" d="M 150.894531 87.53125 L 169.25 126.320312 L 148.613281 122.40625 L 138.566406 140.875 L 120.214844 102.085938 L 150.894531 87.53125 " fill-opacity="1" fill-rule="nonzero"/><g clip-path="url(#0e3d9989b0)"><path fill="#3aaa35" d="M 122.449219 1.570312 L 124.976562 4.148438 C 125.992188 5.179688 127.578125 5.390625 128.824219 4.65625 L 131.933594 2.820312 C 133.449219 1.925781 135.40625 2.449219 136.273438 3.984375 L 138.050781 7.128906 C 138.761719 8.390625 140.238281 9.003906 141.632812 8.617188 L 145.109375 7.648438 C 146.808594 7.179688 148.5625 8.191406 149.003906 9.898438 L 149.90625 13.398438 C 150.265625 14.800781 151.535156 15.773438 152.984375 15.761719 L 156.589844 15.730469 C 158.351562 15.714844 159.785156 17.148438 159.769531 18.910156 L 159.734375 22.523438 C 159.722656 23.972656 160.695312 25.242188 162.097656 25.605469 L 165.589844 26.507812 C 167.296875 26.949219 168.308594 28.707031 167.835938 30.40625 L 166.871094 33.886719 C 166.488281 35.28125 167.097656 36.761719 168.359375 37.476562 L 171.5 39.253906 C 173.03125 40.121094 173.554688 42.078125 172.660156 43.597656 L 170.828125 46.710938 C 170.09375 47.957031 170.304688 49.546875 171.335938 50.5625 L 173.910156 53.09375 C 175.167969 54.332031 175.167969 56.359375 173.910156 57.59375 L 171.335938 60.125 C 170.304688 61.140625 170.09375 62.726562 170.828125 63.976562 L 172.660156 67.089844 C 173.554688 68.609375 173.03125 70.566406 171.5 71.433594 L 168.359375 73.214844 C 167.097656 73.925781 166.488281 75.40625 166.871094 76.800781 L 167.835938 80.28125 C 168.308594 81.980469 167.296875 83.738281 165.589844 84.179688 L 162.097656 85.082031 C 160.695312 85.445312 159.722656 86.714844 159.734375 88.164062 L 159.769531 91.777344 C 159.785156 93.539062 158.351562 94.972656 156.589844 94.957031 L 152.984375 94.925781 C 151.535156 94.914062 150.265625 95.886719 149.90625 97.289062 L 149.003906 100.789062 C 148.5625 102.496094 146.808594 103.511719 145.109375 103.039062 L 141.632812 102.070312 C 140.238281 101.683594 138.761719 102.296875 138.050781 103.558594 L 136.273438 106.703125 C 135.40625 108.238281 133.449219 108.761719 131.933594 107.867188 L 128.824219 106.03125 C 127.578125 105.296875 125.992188 105.507812 124.976562 106.539062 L 122.449219 109.117188 C 121.214844 110.375 119.191406 110.375 117.957031 109.117188 L 115.425781 106.539062 C 114.414062 105.507812 112.828125 105.296875 111.582031 106.03125 L 108.472656 107.867188 C 106.953125 108.761719 105 108.238281 104.132812 106.703125 L 102.355469 103.558594 C 101.644531 102.296875 100.164062 101.683594 98.773438 102.070312 L 95.292969 103.039062 C 93.597656 103.511719 91.84375 102.496094 91.402344 100.789062 L 90.5 97.289062 C 90.136719 95.886719 88.871094 94.914062 87.421875 94.925781 L 83.816406 94.957031 C 82.054688 94.972656 80.621094 93.539062 80.636719 91.777344 L 80.671875 88.164062 C 80.683594 86.714844 79.707031 85.445312 78.308594 85.082031 L 74.8125 84.179688 C 73.109375 83.738281 72.097656 81.980469 72.566406 80.28125 L 73.53125 76.800781 C 73.917969 75.40625 73.308594 73.925781 72.046875 73.214844 L 68.90625 71.433594 C 67.375 70.566406 66.847656 68.609375 67.746094 67.089844 L 69.574219 63.976562 C 70.3125 62.726562 70.101562 61.140625 69.070312 60.125 L 66.496094 57.59375 C 65.238281 56.359375 65.238281 54.332031 66.496094 53.09375 L 69.070312 50.5625 C 70.101562 49.546875 70.3125 47.957031 69.574219 46.710938 L 67.746094 43.597656 C 66.847656 42.078125 67.375 40.121094 68.90625 39.253906 L 72.046875 37.476562 C 73.308594 36.761719 73.917969 35.28125 73.53125 33.886719 L 72.566406 30.40625 C 72.097656 28.707031 73.109375 26.949219 74.8125 26.507812 L 78.308594 25.605469 C 79.707031 25.242188 80.683594 23.972656 80.671875 22.523438 L 80.636719 18.910156 C 80.621094 17.148438 82.054688 15.714844 83.816406 15.730469 L 87.421875 15.761719 C 88.871094 15.773438 90.136719 14.800781 90.5 13.398438 L 91.402344 9.898438 C 91.84375 8.191406 93.597656 7.179688 95.292969 7.648438 L 98.773438 8.617188 C 100.164062 9.003906 101.644531 8.390625 102.355469 7.128906 L 104.132812 3.984375 C 105 2.449219 106.953125 1.925781 108.472656 2.820312 L 111.582031 4.65625 C 112.828125 5.390625 114.414062 5.179688 115.425781 4.148438 L 117.957031 1.570312 C 119.191406 0.3125 121.214844 0.3125 122.449219 1.570312 " fill-opacity="1" fill-rule="nonzero"/></g><path fill="#ffffff" d="M 120.203125 14.996094 C 97.984375 14.996094 79.90625 33.097656 79.90625 55.34375 C 79.90625 77.589844 97.984375 95.691406 120.203125 95.691406 C 142.421875 95.691406 160.5 77.589844 160.5 55.34375 C 160.5 33.097656 142.421875 14.996094 120.203125 14.996094 Z M 120.203125 96.867188 C 114.605469 96.867188 109.171875 95.769531 104.058594 93.601562 C 99.121094 91.511719 94.6875 88.515625 90.878906 84.703125 C 87.070312 80.890625 84.078125 76.449219 81.992188 71.507812 C 79.828125 66.386719 78.730469 60.949219 78.730469 55.34375 C 78.730469 49.738281 79.828125 44.300781 81.992188 39.179688 C 84.078125 34.238281 87.070312 29.796875 90.878906 25.984375 C 94.6875 22.171875 99.121094 19.175781 104.058594 17.085938 C 109.171875 14.921875 114.605469 13.820312 120.203125 13.820312 C 125.800781 13.820312 131.230469 14.921875 136.34375 17.085938 C 141.28125 19.175781 145.71875 22.171875 149.527344 25.984375 C 153.335938 29.796875 156.324219 34.238281 158.414062 39.179688 C 160.578125 44.300781 161.671875 49.738281 161.671875 55.34375 C 161.671875 60.949219 160.578125 66.386719 158.414062 71.507812 C 156.324219 76.449219 153.335938 80.890625 149.527344 84.703125 C 145.71875 88.515625 141.28125 91.511719 136.34375 93.601562 C 131.230469 95.769531 125.800781 96.867188 120.203125 96.867188 " fill-opacity="1" fill-rule="nonzero"/><path fill="#ffffff" d="M 111.523438 79.964844 L 91.855469 60.582031 L 97.988281 54.34375 L 111.160156 67.324219 L 141.519531 33.71875 L 148.003906 39.589844 L 111.523438 79.964844 " fill-opacity="1" fill-rule="nonzero"/></svg>