<svg
  xmlns="http://www.w3.org/2000/svg"
  xmlns:xlink="http://www.w3.org/1999/xlink"
  width="321"
  zoomAndPan="magnify"
  viewBox="0 0 240.75 141.750002"
  height="189"
  preserveAspectRatio="xMidYMid meet"
  version="1.0"
>
  <defs>
    <clipPath id="718593bd3b">
      <path
        d="M 153.675781 112.273438 L 183 112.273438 L 183 141.441406 L 153.675781 141.441406 Z M 153.675781 112.273438 "
        clip-rule="nonzero"
      />
    </clipPath>
    <clipPath id="fb11fc5640">
      <path
        d="M 82.074219 112.273438 L 111.269531 112.273438 L 111.269531 141.441406 L 82.074219 141.441406 Z M 82.074219 112.273438 "
        clip-rule="nonzero"
      />
    </clipPath>
    <clipPath id="3919f3001b">
      <path
        d="M 18.5625 58 L 31 58 L 31 66 L 18.5625 66 Z M 18.5625 58 "
        clip-rule="nonzero"
      />
    </clipPath>
    <clipPath id="523de0a9f1">
      <path
        d="M 119.160156 0.0585938 L 222.203125 0.0585938 L 222.203125 97.878906 L 119.160156 97.878906 Z M 119.160156 0.0585938 "
        clip-rule="nonzero"
      />
    </clipPath>
    <clipPath id="60b304f3c7">
      <path
        d="M 77.34375 138.699219 L 97.460938 138.699219 L 97.460938 141.441406 L 77.34375 141.441406 Z M 77.34375 138.699219 "
        clip-rule="nonzero"
      />
    </clipPath>
    <clipPath id="e58d39dc9b">
      <path
        d="M 150.324219 138.699219 L 167.484375 138.699219 L 167.484375 141.441406 L 150.324219 141.441406 Z M 150.324219 138.699219 "
        clip-rule="nonzero"
      />
    </clipPath>
  </defs>
  <path
    fill="#082841"
    d="M 185.09375 95.78125 L 157.582031 95.78125 C 156.203125 95.78125 155.128906 94.589844 155.273438 93.21875 L 157.074219 76.089844 C 157.128906 75.566406 157.597656 75.144531 158.117188 75.144531 L 168.964844 75.144531 C 170.402344 75.144531 171.71875 75.714844 172.628906 76.730469 L 186.777344 92.539062 C 187.847656 93.734375 186.785156 95.78125 185.09375 95.78125 Z M 198.25 98.066406 L 176.722656 74.019531 C 174.832031 71.90625 172.089844 70.71875 169.101562 70.71875 L 153.855469 70.71875 C 152.5625 70.71875 151.324219 71.15625 150.300781 71.886719 L 151.078125 64.492188 C 151.433594 61.109375 148.78125 58.167969 145.382812 58.167969 L 37.957031 58.167969 C 35.890625 58.167969 34.214844 59.839844 34.214844 61.90625 C 34.214844 63.972656 35.890625 65.648438 37.957031 65.648438 L 91.789062 65.648438 C 93.855469 65.648438 95.527344 67.324219 95.527344 69.386719 C 95.527344 71.453125 93.855469 73.128906 91.789062 73.128906 L 45.539062 73.128906 C 43.472656 73.128906 41.796875 74.804688 41.796875 76.867188 C 41.796875 78.933594 43.472656 80.609375 45.539062 80.609375 L 88.082031 80.609375 C 90.148438 80.609375 91.824219 82.285156 91.824219 84.347656 C 91.824219 86.414062 90.148438 88.089844 88.082031 88.089844 L 28.222656 88.089844 C 26.15625 88.089844 24.480469 89.765625 24.480469 91.828125 C 24.480469 93.894531 26.15625 95.570312 28.222656 95.570312 L 70.605469 95.570312 C 72.671875 95.570312 74.347656 97.246094 74.347656 99.3125 C 74.347656 101.375 72.671875 103.050781 70.605469 103.050781 L 44.398438 103.050781 C 42.332031 103.050781 40.65625 104.726562 40.65625 106.792969 C 40.65625 108.855469 42.332031 110.53125 44.398438 110.53125 L 55.167969 110.53125 L 54.113281 120.570312 C 53.757812 123.953125 56.410156 126.898438 59.808594 126.898438 L 79.136719 126.898438 C 79.136719 117.25 86.984375 109.402344 96.632812 109.402344 C 106.28125 109.402344 114.132812 117.25 114.132812 126.898438 L 150.914062 126.898438 C 150.914062 117.25 158.761719 109.402344 168.410156 109.402344 C 178.058594 109.402344 185.90625 117.25 185.90625 126.898438 L 190.453125 126.898438 C 194.90625 126.898438 198.898438 123.285156 199.367188 118.832031 L 200.710938 106.035156 C 201.027344 103.046875 200.140625 100.179688 198.25 98.066406 "
    fill-opacity="1"
    fill-rule="nonzero"
  />
  <g clip-path="url(#718593bd3b)">
    <path
      fill="#082841"
      d="M 168.410156 133.160156 C 164.957031 133.160156 162.144531 130.351562 162.144531 126.898438 C 162.144531 123.445312 164.957031 120.632812 168.410156 120.632812 C 171.863281 120.632812 174.671875 123.445312 174.671875 126.898438 C 174.671875 130.351562 171.863281 133.160156 168.410156 133.160156 Z M 168.410156 112.355469 C 160.390625 112.355469 153.863281 118.878906 153.863281 126.898438 C 153.863281 134.914062 160.390625 141.441406 168.410156 141.441406 C 176.429688 141.441406 182.953125 134.914062 182.953125 126.898438 C 182.953125 118.878906 176.429688 112.355469 168.410156 112.355469 "
      fill-opacity="1"
      fill-rule="nonzero"
    />
  </g>
  <g clip-path="url(#fb11fc5640)">
    <path
      fill="#082841"
      d="M 96.632812 133.160156 C 93.179688 133.160156 90.371094 130.351562 90.371094 126.898438 C 90.371094 123.445312 93.179688 120.632812 96.632812 120.632812 C 100.089844 120.632812 102.898438 123.445312 102.898438 126.898438 C 102.898438 130.351562 100.089844 133.160156 96.632812 133.160156 Z M 96.632812 112.355469 C 88.613281 112.355469 82.089844 118.878906 82.089844 126.898438 C 82.089844 134.914062 88.613281 141.441406 96.632812 141.441406 C 104.65625 141.441406 111.179688 134.914062 111.179688 126.898438 C 111.179688 118.878906 104.65625 112.355469 96.632812 112.355469 "
      fill-opacity="1"
      fill-rule="nonzero"
    />
  </g>
  <g clip-path="url(#3919f3001b)">
    <path
      fill="#082841"
      d="M 30.402344 61.90625 C 30.402344 59.839844 28.726562 58.167969 26.660156 58.167969 L 22.300781 58.167969 C 20.238281 58.167969 18.5625 59.839844 18.5625 61.90625 C 18.5625 63.972656 20.238281 65.648438 22.300781 65.648438 L 26.660156 65.648438 C 28.726562 65.648438 30.402344 63.972656 30.402344 61.90625 "
      fill-opacity="1"
      fill-rule="nonzero"
    />
  </g>
  <path
    fill="#082841"
    d="M 26.425781 76.867188 C 26.425781 78.933594 28.097656 80.609375 30.164062 80.609375 L 34.523438 80.609375 C 36.589844 80.609375 38.265625 78.933594 38.265625 76.867188 C 38.265625 74.804688 36.589844 73.128906 34.523438 73.128906 L 30.164062 73.128906 C 28.097656 73.128906 26.425781 74.804688 26.425781 76.867188 "
    fill-opacity="1"
    fill-rule="nonzero"
  />
  <g clip-path="url(#523de0a9f1)">
    <path
      fill="#082841"
      d="M 165.261719 0.0585938 C 146.347656 0.0585938 129.585938 9.277344 119.230469 23.464844 C 129.5 13.417969 143.554688 7.222656 159.058594 7.222656 C 190.511719 7.222656 216.007812 32.714844 216.007812 64.160156 C 216.007812 76.699219 211.957031 88.285156 205.089844 97.691406 C 215.652344 87.355469 222.210938 72.941406 222.210938 56.996094 C 222.210938 25.550781 196.714844 0.0585938 165.261719 0.0585938 "
      fill-opacity="1"
      fill-rule="nonzero"
    />
  </g>
  <path
    fill="#082841"
    d="M 165.542969 62.265625 C 165.542969 64.332031 163.867188 66.007812 161.800781 66.007812 C 159.734375 66.007812 158.058594 64.332031 158.058594 62.265625 C 158.058594 60.199219 159.734375 58.523438 161.800781 58.523438 C 163.867188 58.523438 165.542969 60.199219 165.542969 62.265625 "
    fill-opacity="1"
    fill-rule="nonzero"
  />
  <path
    fill="#082841"
    d="M 195.601562 44.589844 C 194.992188 43.425781 193.554688 42.976562 192.390625 43.582031 L 164.535156 58.152344 C 165.863281 59.035156 166.742188 60.546875 166.742188 62.265625 C 166.742188 62.300781 166.738281 62.332031 166.738281 62.367188 L 194.597656 47.800781 C 195.761719 47.191406 196.210938 45.753906 195.601562 44.589844 Z M 156.777344 38.589844 C 155.492188 38.863281 154.671875 40.125 154.941406 41.410156 L 158.574219 58.523438 C 159.441406 57.777344 160.566406 57.324219 161.800781 57.324219 C 162.296875 57.324219 162.777344 57.398438 163.230469 57.535156 L 159.597656 40.421875 C 159.324219 39.140625 158.0625 38.316406 156.777344 38.589844 "
    fill-opacity="1"
    fill-rule="nonzero"
  />
  <g clip-path="url(#60b304f3c7)">
    <path
      fill="#082841"
      d="M 97.273438 138.800781 L 97.273438 141.441406 L 77.46875 141.441406 Z M 97.273438 138.800781 "
      fill-opacity="1"
      fill-rule="nonzero"
    />
  </g>
  <g clip-path="url(#e58d39dc9b)">
    <path
      fill="#082841"
      d="M 167.425781 138.800781 L 167.425781 141.441406 L 150.324219 141.441406 Z M 167.425781 138.800781 "
      fill-opacity="1"
      fill-rule="nonzero"
    />
  </g>
</svg>
